<?xml version="1.0" encoding="utf-8"?>
<!-- Generator: Adobe Illustrator 16.0.3, SVG Export Plug-In . SVG Version: 6.00 Build 0)  -->
<!DOCTYPE svg PUBLIC "-//W3C//DTD SVG 1.1//EN" "http://www.w3.org/Graphics/SVG/1.1/DTD/svg11.dtd">
<svg version="1.1" id="Capa_1" xmlns="http://www.w3.org/2000/svg" xmlns:xlink="http://www.w3.org/1999/xlink" x="0px" y="0px"
	 width="600px" height="600px" viewBox="0 0 600 600" enable-background="new 0 0 600 600" xml:space="preserve">
<g>
	<defs>
		<rect id="SVGID_1_" x="-73.5" y="-183.5" width="1920" height="1080"/>
	</defs>
	<clipPath id="SVGID_2_">
		<use xlink:href="#SVGID_1_"  overflow="visible"/>
	</clipPath>
	<g clip-path="url(#SVGID_2_)">
		<defs>
			<rect id="SVGID_3_" x="-73.5" y="-183.5" width="1920" height="1080"/>
		</defs>
		<clipPath id="SVGID_4_">
			<use xlink:href="#SVGID_3_"  overflow="visible"/>
		</clipPath>
		<path clip-path="url(#SVGID_4_)" fill="#3ACB35" d="M596.379,114.417c-5.82-32.367-37.722-52.744-70.825-46.279
			c-18.222,3.549-31.927,14.416-44.639,27.011c-14.596,14.467-24.972,31.98-35.825,49.195
			c-15.306,24.275-30.818,48.395-50.034,69.896c-7.524,8.401-16.054,12.505-27.927,12.453c-13.422-0.051-26.843-0.09-40.278-0.116
			v45.866h88.518v0.193h100.507c-2.13,10.272-3.511,20.184-6.26,29.696c-10.93,37.838-26.365,73.379-53.673,102.765
			c-27.295,29.372-60.616,49.298-97.9,63.106c-1.819,0.672-3.91,0.801-5.872,0.813c-47.582,0.051-95.151-0.013-142.72,0.116
			c-7.33,0.013-15.009,2.31-21.9,0.761c-6.775-1.523-12.596-6.904-19.126-10.014c-8.982-4.299-18.958-6.917-27.217-12.261
			c-37.038-23.914-65.908-55.363-85.537-95.138c-10.079-20.392-19.654-40.884-23.371-63.56c-0.852-5.227-1.175-10.543-1.781-16.286
			h100.494v-0.193h88.517v-46.008c-60.293-0.013-120.574,0.078-180.868,0.181c-5.665,0.013-11.576,1.523-16.957,3.484
			c-7.873,2.878-13.564,8.815-13.706,17.461c-0.297,17.965-1.445,35.98,2.555,53.803c6.35,28.365,18.79,54.073,34.109,78.438
			c11.047,17.577,21.32,35.787,37.297,49.841c21.848,19.203,43.749,38.496,70.605,50.292c10.001,4.4,14.596,9.072,13.086,20.145
			c-0.891,6.467,3.497,10.866,10.053,12.363c2.723,0.633,5.601,0.892,8.414,0.892c31.876,0.076,63.752,0.076,95.642,0.09
			c29.204,0,58.409,0.039,87.614-0.014c11.421-0.025,17.461-4.98,19.113-16.209c0.671-4.658,0.103-9.498,0.103-14.544
			c23.939-9.782,46.085-23.669,64.746-41.839c15.796-15.396,30.146-32.586,43.233-50.383c24.597-33.425,40.2-70.837,44.317-112.547
			c1.264-12.854,2.103-25.591-3.949-37.71c-3.536-7.11-8.311-12.389-16.635-13.602c-1.071-0.155-2.001-1.239-2.981-1.897
			c0.632-0.89,1.109-1.974,1.922-2.62c1.175-0.916,2.594-1.497,3.911-2.232c19.797-11.228,38.6-23.772,54.46-40.368
			C593.153,161.096,600.87,139.415,596.379,114.417"/>
		<path clip-path="url(#SVGID_4_)" fill="#E30613" d="M402.463,289.023v74.158c0,2.03-1.646,3.677-3.675,3.677h-81.167
			c-2.03,0-3.676,1.645-3.676,3.675V451.7c0,2.03-1.645,3.675-3.675,3.675h-74.159c-2.03,0-3.676-1.645-3.676-3.675v-81.167
			c0-2.03-1.645-3.675-3.675-3.675h-81.167c-2.03,0-3.675-1.646-3.675-3.677v-74.158c0-2.03,1.645-3.676,3.675-3.676h81.167
			c2.03,0,3.675-1.646,3.675-3.676v-81.167c0-2.03,1.646-3.675,3.676-3.675h74.159c2.03,0,3.675,1.645,3.675,3.675v81.167
			c0,2.03,1.646,3.676,3.676,3.676h81.167C400.817,285.348,402.463,286.993,402.463,289.023"/>
	</g>
</g>
</svg>
